<?xml version="1.0" encoding="utf-8"?>
<!-- Generator: Adobe Illustrator 16.0.0, SVG Export Plug-In . SVG Version: 6.00 Build 0)  -->
<!DOCTYPE svg PUBLIC "-//W3C//DTD SVG 1.1//EN" "http://www.w3.org/Graphics/SVG/1.1/DTD/svg11.dtd">
<svg version="1.1" id="Layer_1" xmlns="http://www.w3.org/2000/svg" xmlns:xlink="http://www.w3.org/1999/xlink" x="0px" y="0px"
	 width="360px" height="360px" viewBox="0 0 360 360" enable-background="new 0 0 360 360" xml:space="preserve">
<g>
	
			<g>
		<g>
			<path fill="#FFFFFF" d="M334.883,275.78l-6.374-36.198l-6.374-36.199l-28.161,23.619l-28.163,23.62l25.836,9.41
				c-25.4,36.512-67.647,60.467-115.396,60.467c-77.472,0-140.5-63.028-140.5-140.5c0-77.471,63.028-140.498,140.5-140.498
				c53.427,0,99.979,29.977,123.732,73.992l13.304-6.923C287.025,57.76,235.451,24.501,176.25,24.501
				c-85.743,0-155.5,69.756-155.5,155.498c0,85.743,69.757,155.5,155.5,155.5c54.253,0,102.091-27.939,129.922-70.176
				L334.883,275.78z"/>
			<g>
				<path fill="#FFFFFF" d="M314.492,175.167c-12.98,0-23.54-10.56-23.54-23.54s10.56-23.54,23.54-23.54
					c12.979,0,23.539,10.56,23.539,23.54S327.472,175.167,314.492,175.167z M314.492,137.087c-8.018,0-14.54,6.522-14.54,14.54
					s6.522,14.54,14.54,14.54c8.017,0,14.539-6.522,14.539-14.54S322.509,137.087,314.492,137.087z"/>
			</g>
			<g>
				<path fill="#FFFFFF" d="M88.76,173.102h9.395c4.739-0.042,8.495-1.27,11.268-3.682c2.771-2.412,4.157-5.903,4.157-10.474
					c0-4.401-1.153-7.817-3.46-10.251c-2.307-2.433-5.829-3.65-10.568-3.65c-4.147,0-7.554,1.196-10.22,3.586
					c-2.666,2.391-3.999,5.513-3.999,9.363H69.907c0-4.739,1.259-9.055,3.776-12.949c2.518-3.893,6.031-6.929,10.537-9.109
					c4.508-2.179,9.554-3.269,15.14-3.269c9.225,0,16.472,2.317,21.741,6.951c5.268,4.634,7.902,11.077,7.902,19.329
					c0,4.148-1.323,8.052-3.967,11.711c-2.646,3.661-6.062,6.422-10.252,8.284c5.078,1.736,8.939,4.465,11.584,8.189
					s3.968,8.167,3.968,13.33c0,8.295-2.847,14.896-8.538,19.805s-13.171,7.363-22.438,7.363c-8.887,0-16.166-2.369-21.836-7.109
					c-5.671-4.74-8.506-11.045-8.506-18.916h15.425c0,4.062,1.365,7.363,4.094,9.902c2.73,2.539,6.4,3.809,11.014,3.809
					c4.781,0,8.548-1.27,11.299-3.809c2.75-2.539,4.126-6.221,4.126-11.045c0-4.866-1.439-8.611-4.316-11.236
					c-2.878-2.623-7.152-3.936-12.822-3.936H88.76V173.102z"/>
				<path fill="#FFFFFF" d="M187.598,133.493v12.759h-1.904c-8.633,0.127-15.531,2.498-20.693,7.109
					c-5.163,4.613-8.231,11.151-9.204,19.614c4.951-5.205,11.277-7.808,18.979-7.808c8.167,0,14.609,2.878,19.329,8.633
					c4.718,5.755,7.077,13.182,7.077,22.28c0,9.395-2.761,17.002-8.284,22.82c-5.521,5.818-12.77,8.729-21.74,8.729
					c-9.226,0-16.705-3.406-22.439-10.221c-5.734-6.812-8.601-15.742-8.601-26.787v-5.268c0-16.208,3.945-28.903,11.839-38.086
					c7.892-9.182,19.243-13.774,34.055-13.774H187.598z M171.03,177.609c-3.386,0-6.485,0.952-9.299,2.856
					c-2.815,1.904-4.878,4.443-6.189,7.617v4.697c0,6.855,1.438,12.305,4.316,16.346c2.877,4.041,6.602,6.062,11.172,6.062
					s8.188-1.715,10.854-5.143s3.999-7.934,3.999-13.52s-1.354-10.135-4.062-13.648C179.112,179.365,175.516,177.609,171.03,177.609
					z"/>
				<path fill="#FFFFFF" d="M271.136,187.447c0,13.289-2.486,23.307-7.459,30.057s-12.536,10.125-22.692,10.125
					c-9.987,0-17.51-3.291-22.565-9.871c-5.058-6.58-7.649-16.323-7.776-29.23v-15.997c0-13.288,2.485-23.253,7.458-29.897
					c4.973-6.643,12.558-9.966,22.757-9.966c10.113,0,17.656,3.237,22.63,9.712c4.972,6.475,7.521,16.166,7.648,29.072V187.447z
					 M255.711,170.182c0-8.674-1.186-15.033-3.555-19.075c-2.37-4.041-6.137-6.062-11.299-6.062c-5.036,0-8.739,1.915-11.108,5.745
					c-2.37,3.831-3.618,9.807-3.745,17.932v20.948c0,8.633,1.206,15.064,3.618,19.297s6.199,6.348,11.362,6.348
					c4.951,0,8.611-1.957,10.981-5.871c2.369-3.914,3.618-10.04,3.745-18.377V170.182z"/>
			</g>
		</g>
	</g>
</g>
</svg>
